<svg width="54" height="54" viewBox="0 0 54 54" fill="none" xmlns="http://www.w3.org/2000/svg">
<path d="M49.2791 45.7615H17.2286C16.7941 45.7615 16.4527 45.4098 16.4527 44.9856C16.4527 44.5614 16.8045 44.2097 17.2286 44.2097H49.2791C49.9205 44.2097 50.4482 43.6924 50.4482 43.0406V20.715C50.4482 20.0735 49.9309 19.5459 49.2791 19.5459H15.7699C15.3354 19.5459 14.994 19.1942 14.994 18.77C14.994 18.3458 15.3457 17.9941 15.7699 17.9941H49.2791C50.7792 17.9941 52 19.2149 52 20.715V43.0406C52 44.5407 50.7792 45.7615 49.2791 45.7615Z" fill="#00AB67"/>
<path d="M51.2241 23.7461H20.9737C20.5392 23.7461 20.1978 23.3944 20.1978 22.9702C20.1978 22.546 20.5496 22.1943 20.9737 22.1943H51.2241C51.6586 22.1943 52 22.546 52 22.9702C52 23.3944 51.6483 23.7461 51.2241 23.7461Z" fill="#00AB67"/>
<path d="M51.2241 29.2914H20.9737C20.5392 29.2914 20.1978 28.9396 20.1978 28.5155C20.1978 28.0913 20.5496 27.7396 20.9737 27.7396H51.2241C51.6586 27.7396 52 28.0913 52 28.5155C52 28.9396 51.6483 29.2914 51.2241 29.2914Z" fill="#00AB67"/>
<path d="M26.1879 34.4849H20.4357C20.0012 34.4849 19.6598 34.1331 19.6598 33.709C19.6598 33.2848 20.0116 32.933 20.4357 32.933H26.1879C26.6224 32.933 26.9638 33.2848 26.9638 33.709C26.9638 34.1331 26.612 34.4849 26.1879 34.4849Z" fill="#00AB67"/>
<path d="M26.1879 38.8507H18.108C17.6735 38.8507 17.3321 38.4989 17.3321 38.0747C17.3321 37.6506 17.6838 37.2988 18.108 37.2988H26.1879C26.6224 37.2988 26.9638 37.6506 26.9638 38.0747C26.9638 38.4989 26.612 38.8507 26.1879 38.8507Z" fill="#00AB67"/>
<path d="M42.3786 39.8645C40.1854 39.8645 38.406 38.0851 38.406 35.8918C38.406 33.6986 40.1854 31.9191 42.3786 31.9191C44.5719 31.9191 46.3513 33.6986 46.3513 35.8918C46.3513 38.0851 44.5719 39.8645 42.3786 39.8645ZM42.3786 33.4813C41.0441 33.4813 39.9681 34.5676 39.9681 35.8918C39.9681 37.216 41.0544 38.3023 42.3786 38.3023C43.7029 38.3023 44.7892 37.216 44.7892 35.8918C44.7892 34.5676 43.7029 33.4813 42.3786 33.4813Z" fill="#00AB67"/>
<path d="M10.6385 18.6872C8.23837 18.6872 6.2934 16.3388 6.2934 13.4627C6.2934 10.5867 8.24871 8.23822 10.6385 8.23822C13.0284 8.23822 14.9837 10.5867 14.9837 13.4627C14.9837 16.3388 13.0387 18.6872 10.6385 18.6872V18.6872ZM10.6385 9.79005C9.09705 9.79005 7.84523 11.435 7.84523 13.4627C7.84523 15.4904 9.09705 17.1354 10.6385 17.1354C12.18 17.1354 13.4318 15.4904 13.4318 13.4627C13.4318 11.435 12.18 9.79005 10.6385 9.79005V9.79005Z" fill="#00AB67"/>
<path d="M14.9319 34.64C14.6216 34.64 14.3319 34.4538 14.2077 34.1435C14.0526 33.74 14.2491 33.2951 14.6423 33.1296C16.4941 32.3951 17.6942 30.6363 17.6942 28.6396V26.0326C17.6942 23.3738 15.532 21.2012 12.8628 21.2012H8.39354C5.73474 21.2012 3.56218 23.3634 3.56218 26.0326V28.6396C3.56218 30.6363 4.76226 32.3951 6.61411 33.1296C7.01759 33.2848 7.21415 33.74 7.04862 34.1435C6.89344 34.5469 6.43824 34.7332 6.03476 34.578C3.58287 33.6055 2 31.2777 2 28.6396V26.0326C2 22.5151 4.86571 19.6494 8.3832 19.6494H12.8525C16.37 19.6494 19.2357 22.5151 19.2357 26.0326V28.6396C19.2357 31.2777 17.6528 33.6055 15.2009 34.578C15.1078 34.6194 15.0147 34.6297 14.9112 34.6297L14.9319 34.64Z" fill="#00AB67"/>
<path d="M10.6385 44.9029C10.204 44.9029 9.86261 44.5511 9.86261 44.127V33.8745C9.86261 33.44 10.2144 33.0986 10.6385 33.0986C11.0627 33.0986 11.4144 33.4504 11.4144 33.8745V44.127C11.4144 44.5615 11.0627 44.9029 10.6385 44.9029Z" fill="#00AB67"/>
<path d="M12.5731 45.7614C11.9421 45.7614 11.28 45.5856 10.6385 45.1407C8.8384 46.4029 6.83137 45.4718 5.96234 44.7165C5.78647 44.5717 5.69336 44.3544 5.69336 44.1268V25.1738C5.69336 24.7393 6.04511 24.3979 6.46927 24.3979C6.89344 24.3979 7.24519 24.7496 7.24519 25.1738V43.7337C7.78316 44.0855 9.00393 44.6545 10.0902 43.5785C10.3902 43.2785 10.8868 43.2785 11.1868 43.5785C12.2731 44.6648 13.4939 44.0855 14.0215 43.7337V25.1738C14.0215 24.7393 14.3733 24.3979 14.7974 24.3979C15.2216 24.3979 15.5734 24.7496 15.5734 25.1738V44.1268C15.5734 44.3544 15.4699 44.5717 15.3044 44.7165C14.7457 45.2028 13.7112 45.7614 12.5628 45.7614H12.5731Z" fill="#00AB67"/>
</svg>
